<svg width="1024" height="1024" viewBox="0 0 1024 1024" fill="none" xmlns="http://www.w3.org/2000/svg">
<rect width="1024" height="1024" fill="#10847E"/>
<path fill-rule="evenodd" clip-rule="evenodd" d="M326.554 246.285C303.378 262.491 282.42 281.652 264.226 303.221C338.573 296.319 433.028 307.589 542.689 362.42C659.792 420.97 754.09 422.95 819.716 410.291C813.761 392.262 806.263 374.935 797.384 358.463C722.26 366.386 625.951 355.898 513.71 299.78C442.437 264.143 379.61 249.463 326.554 246.285ZM753.5 296C694.174 229.715 607.959 188 512 188C483.82 188 456.477 191.598 430.412 198.36C465.715 207.992 503.218 222.085 542.689 241.821C624.865 282.908 695.812 296.138 753.5 296ZM833.747 473.575C754.464 489.231 644.982 486.015 513.71 420.379C390.986 359.017 293.307 359.789 227.429 374.429C224.029 375.184 220.708 375.978 217.468 376.804C208.843 395.562 201.958 415.287 197.019 435.771C202.295 434.361 207.747 433.022 213.372 431.771C293.293 414.011 406.215 414.782 542.689 483.02C665.415 544.382 763.094 543.609 828.972 528.969C831.229 528.469 833.453 527.95 835.64 527.416C835.88 522.308 836 517.168 836 512C836 498.999 835.235 486.177 833.747 473.575ZM825.062 595.791C746.548 609.518 640.255 604.249 513.71 540.978C390.986 479.616 293.307 480.389 227.429 495.029C212.806 498.277 199.652 502.235 188.047 506.413C188.016 508.271 188 510.134 188 512C188 690.94 333.06 836 512 836C661.965 836 788.134 734.117 825.062 595.791Z" fill="white"/>
</svg>
